<svg height="480pt" viewBox="0 0 480.00111 480" width="480pt" xmlns="http://www.w3.org/2000/svg"><path d="m107.5625 289.375 128 85.359375c2.6875 1.796875 6.191406 1.796875 8.878906 0l128-85.359375c2.222656-1.484375 3.558594-3.980469 3.558594-6.65625v-106.636719c.019531-3.046875-1.699219-5.839843-4.421875-7.203125l-128-64c-2.253906-1.125-4.902344-1.125-7.152344 0l-128 64c-2.726562 1.363282-4.441406 4.15625-4.425781 7.203125v106.636719c0 2.675781 1.335938 5.171875 3.5625 6.65625zm12.4375-100.367188 112 56v108.121094l-112-74.6875zm128 164.121094v-108.121094l112-56v89.433594zm-8-232.105468 110.097656 55.046874-110.097656 55.050782-110.09375-55.050782zm0 0"/><path d="m42.714844 271.464844c15.359375 97.050781 99.027344 168.515625 197.285156 168.515625 98.261719 0 181.925781-71.464844 197.289062-168.515625 15.402344-2.539063 26.707032-15.855469 26.707032-31.464844s-11.304688-28.925781-26.707032-31.464844c-15.363281-97.050781-99.027343-168.515625-197.289062-168.515625-98.257812 0-181.925781 71.464844-197.285156 168.515625-15.40625 2.539063-26.707032 15.855469-26.707032 31.464844s11.300782 28.925781 26.707032 31.464844zm405.285156-31.464844c0 8.835938-7.164062 16-16 16s-16-7.164062-16-16 7.164062-16 16-16 16 7.164062 16 16zm-208-184c89.949219.105469 166.640625 65.226562 181.320312 153.96875-12.769531 4.457031-21.328124 16.503906-21.328124 30.03125s8.558593 25.574219 21.328124 30.03125c-14.589843 88.792969-91.335937 153.957031-181.320312 153.957031-89.980469 0-166.726562-65.164062-181.320312-153.957031 12.773437-4.457031 21.328124-16.503906 21.328124-30.03125s-8.554687-25.574219-21.328124-30.03125c14.683593-88.742188 91.371093-153.863281 181.320312-153.96875zm-192 168c8.835938 0 16 7.164062 16 16s-7.164062 16-16 16-16-7.164062-16-16 7.164062-16 16-16zm0 0"/><path d="m480 240c.007812-55.394531-19.179688-109.078125-54.292969-151.917969 8.667969-9.425781 8.347657-24.015625-.730469-33.050781-9.179687-8.726562-23.492187-9.042969-33.046874-.726562-88.347657-72.40625-215.511719-72.40625-303.855469 0-9.550781-8.316407-23.863281-8.007813-33.042969.71875-9.082031 9.035156-9.40625 23.628906-.734375 33.058593-72.394531 88.339844-72.394531 215.496094 0 303.839844-8.640625 9.4375-8.320313 24.007813.726563 33.054687 9.050781 9.050782 23.621093 9.371094 33.058593.726563 88.339844 72.398437 215.496094 72.398437 303.839844 0 9.4375 8.644531 24.007813 8.324219 33.054687-.726563 9.050782-9.046874 9.371094-23.617187.730469-33.054687 35.113281-42.84375 54.300781-96.527344 54.292969-151.921875zm-77.65625-173.65625c2.011719-2.078125 4.984375-2.914062 7.78125-2.179688 2.796875.730469 4.980469 2.914063 5.714844 5.710938.730468 2.796875-.101563 5.773438-2.183594 7.78125-3.164062 3.023438-8.148438 3.023438-11.3125 0-3.121094-3.125-3.121094-8.1875 0-11.3125zm-336 0c2.011719-2.078125 4.984375-2.914062 7.78125-2.179688 2.796875.730469 4.980469 2.914063 5.714844 5.710938.730468 2.796875-.101563 5.773438-2.183594 7.78125-3.164062 3.023438-8.148438 3.023438-11.3125 0-3.121094-3.125-3.121094-8.1875 0-11.3125zm11.3125 347.3125c-3.164062 3.023438-8.148438 3.023438-11.3125 0-3.125-3.125-3.125-8.191406 0-11.3125 3.125-3.125 8.191406-3.125 11.316406 0 3.121094 3.121094 3.121094 8.1875-.003906 11.3125zm18.03125-2.398438c1.261719-7.429687-1.253906-15-6.710938-20.195312-5.324218-5.105469-12.6875-7.507812-20-6.519531-70.507812-83.332031-70.574218-205.386719-.160156-288.796875 7.453125 1.234375 15.039063-1.207032 20.371094-6.554688 5.335938-5.347656 7.757812-12.945312 6.5-20.390625 83.34375-70.367187 205.285156-70.367187 288.625 0-1.234375 7.441407 1.199219 15.023438 6.53125 20.355469 5.335938 5.335938 12.914062 7.765625 20.355469 6.53125 70.417969 83.414062 70.351562 205.46875-.15625 288.800781-7.3125-.992187-14.675781 1.40625-20 6.511719-5.464844 5.195312-7.984375 12.769531-6.722657 20.199219-83.339843 70.367187-205.28125 70.367187-288.625 0zm317.96875 2.398438c-3.164062 3.023438-8.148438 3.023438-11.3125 0-2.078125-2.007812-2.914062-4.984375-2.179688-7.78125.730469-2.796875 2.914063-4.980469 5.714844-5.710938 2.796875-.734374 5.769532.101563 7.777344 2.179688 3.125 3.125 3.125 8.1875 0 11.3125zm0 0"/></svg>