<svg id="Capa_1" data-name="Capa 1" xmlns="http://www.w3.org/2000/svg" viewBox="0 0 511.74 512.03"><defs><style>.cls-1{fill:#2ba94b;}</style></defs><title>empathy</title><g id="Page-1"><g id="_034---Empathy" data-name="034---Empathy"><path id="Shape" class="cls-1" d="M48,423.07A49.89,49.89,0,0,0,50.89,446a31.83,31.83,0,0,0,30.17,23.29,34.77,34.77,0,0,0,7-.73,693.51,693.51,0,0,0,71.68-21.5c19.17,11.29,31.29,45.58,34.45,58.44a8.53,8.53,0,0,0,8.29,6.51l213.6-.59a8.53,8.53,0,0,0,8.14-11A65.47,65.47,0,0,0,415.57,484a79.19,79.19,0,0,1-5.44-9,167.6,167.6,0,0,1-9.64-24.45,282.52,282.52,0,0,1-10-50.47,141.65,141.65,0,0,1,.93-40.34A8.53,8.53,0,1,0,374.55,357a158.63,158.63,0,0,0-1,45.17,298.67,298.67,0,0,0,10.66,53.44,183.92,183.92,0,0,0,10.56,26.81,94.57,94.57,0,0,0,6.55,11l.63.95-193,.59a136.13,136.13,0,0,0-30-54.51l6.28-2.19c6.38-2.24,11.2-3.94,13.65-4.7,36.51-11.49,54.76-28.11,54.25-49.42a8.37,8.37,0,0,0-8.73-8.33,8.53,8.53,0,0,0-8.33,8.73c.2,8.79-7,21.61-42.33,32.73-2.52.79-7.52,2.56-14.14,4.88-6.09,2.13-13.59,4.77-21.81,7.58a706.85,706.85,0,0,1-73.19,22.14A15.06,15.06,0,0,1,67,440.4,33.14,33.14,0,0,1,65,425.34c.24-1.77.64-3.53,1-5.3a37.86,37.86,0,0,0,.8-18.24,28.2,28.2,0,0,0-15.7-17.46l-1.82-1a31.81,31.81,0,0,1,3.27-5.3,8.53,8.53,0,0,0-1.65-12.11c-2-1.52-6.9-5.17-10.4-8,.43-.8.93-1.71,1.37-2.47,1.31-2.31,2.8-5,4.27-8a31.48,31.48,0,0,0,2.29-19.07c-2-10.46-11.95-15.56-19.23-19.29a49.44,49.44,0,0,1-7-4.1,42.31,42.31,0,0,1-5.06-4.1c0-1.28,1.35-4.39,7.9-12.42A344.07,344.07,0,0,0,63.86,225a24.75,24.75,0,0,0,3.34-11.57,29.75,29.75,0,0,0-12.47-21.33C51.32,189,48,186,47.68,183.37a14.79,14.79,0,0,1,1.37-6c1.39-3.71,3-7.36,4.65-11A123.12,123.12,0,0,0,62,144l.69-3a211,211,0,0,1,7.1-25.82,145.17,145.17,0,0,1,30.54-50c16.49-17.45,41.44-29.35,76.26-36.38A554.16,554.16,0,0,1,256.4,17.37a175.79,175.79,0,0,1,97.87,22.74,8.54,8.54,0,1,0,8.26-14.94A194.91,194.91,0,0,0,255.51.29a569.63,569.63,0,0,0-82.34,11.79c-38.4,7.75-66.3,21.28-85.33,41.38a162.13,162.13,0,0,0-34.13,55.8A228,228,0,0,0,46,137.14l-.69,3a108.74,108.74,0,0,1-7.23,19.29c-1.77,4-3.52,7.9-5,11.95a28.77,28.77,0,0,0-2.3,14.34,32.61,32.61,0,0,0,12.43,19c4.17,3.83,6.91,6.53,6.94,9a14.26,14.26,0,0,1-1.49,3.66,330,330,0,0,1-37.29,60.8c-6.08,7.47-12.48,16.21-11.18,25a26.38,26.38,0,0,0,12.33,15.91,62.94,62.94,0,0,0,8.88,5.12c3.68,1.87,9.82,5,10.24,7.26a14.65,14.65,0,0,1-.94,8.58c-1.26,2.66-2.56,5-3.7,7-3.33,5.9-8.35,14.81-.47,21.45,1.83,1.63,5,4.1,7.87,6.31a21.52,21.52,0,0,0-2.75,12.36,12.23,12.23,0,0,0,5,8.29,62.43,62.43,0,0,0,6,3.69c5,2.87,7,4.2,7.63,6.83a23.89,23.89,0,0,1-.92,10.35C48.83,418.6,48.34,420.84,48,423.07Z" transform="translate(-0.01 0.03)"/><path id="Shape-2" data-name="Shape" class="cls-1" d="M434.94,262.26l49.3-49.75,1.55-1.62.07-.09.55-.57a94.72,94.72,0,0,0-2.24-131.31,92.82,92.82,0,0,0-130.34-2.27q-1.18,1.11-2.33,2.28c-.06.06-.08.15-.14.2l-89.21,90a26.45,26.45,0,0,0,0,37.19A25.89,25.89,0,0,0,280.51,214L366,300.29a9.39,9.39,0,0,1,0,13.15,9,9,0,0,1-12.8,0L249.28,208.6a8.54,8.54,0,1,0-12.13,12L341.06,325.48a9.39,9.39,0,0,1,0,13.16,9.17,9.17,0,0,1-12.8,0L193.13,202.24c-.61-.62-1.22-1.25-1.81-1.89a77.65,77.65,0,0,1,1.84-107.71,76.16,76.16,0,0,1,108.42,0,8.53,8.53,0,1,0,12.13-12,93.23,93.23,0,0,0-132.67,0A94.72,94.72,0,0,0,178.79,212c.06.07.08.15.15.22l2,2,.05.05L316.08,350.58A26.06,26.06,0,0,0,360.67,333a25.86,25.86,0,0,0,17.43-7.63,26.3,26.3,0,0,0,7.52-17.54A25.83,25.83,0,0,0,403,300.2a26.28,26.28,0,0,0,7.52-17.53A25.91,25.91,0,0,0,428,275,26.18,26.18,0,0,0,434.94,262.26ZM274.27,181.13,365.58,89A75.81,75.81,0,0,1,472,90.94a77.65,77.65,0,0,1,1.84,107.71l-.48.49-42.27,42.67A25.83,25.83,0,0,0,428,238l-80.1-80.84,7.54-7.61a66.14,66.14,0,0,0,39.77,18.12,58.76,58.76,0,0,0,45.3-20.09,8.55,8.55,0,1,0-12.18-12,43.12,43.12,0,0,1-32.22,15.05A54.26,54.26,0,0,1,362.09,132a8.53,8.53,0,0,0-12.7-.62L329.92,151l-24.86,25.09-17.87,18a9,9,0,0,1-12.81,0A9.39,9.39,0,0,1,274.27,181.13ZM390.94,288.3a9.14,9.14,0,0,1-12.8,0l-80.21-80.93c.42-.37.85-.66,1.28-1.06L311,194.42,390.83,275l.08.11A9.39,9.39,0,0,1,390.94,288.3Zm12.18-25.14L323,182.29l12.91-13,80,80.71a9.39,9.39,0,0,1,0,13.15A9.16,9.16,0,0,1,403.11,263.16Z" transform="translate(-0.01 0.03)"/></g></g></svg>