<?xml version="1.0"?>
<svg xmlns="http://www.w3.org/2000/svg" xmlns:xlink="http://www.w3.org/1999/xlink" version="1.1" id="Capa_1" x="0px" y="0px" viewBox="0 0 512 512" style="enable-background:new 0 0 512 512;" xml:space="preserve" width="512px" height="512px"><g><g>
	<g>
		<path d="M467,229.5c-23.426,0-42.719,17.995-44.804,40.887c-35.819,8.413-72.211,14.058-108.8,16.943l15.436-15.436    l-45.872-45.872c8.008-7.319,13.04-17.843,13.04-29.521v-40h6c34.738,0,63-28.262,63-63h-30c0,18.196-14.804,33-33,33h-92    c-18.196,0-33-14.804-33-33h-30c0,34.738,28.262,63,63,63h6v40c0,11.678,5.032,22.202,13.04,29.522l-45.872,45.872l15.447,15.447    c-36.595-2.885-72.989-8.551-108.812-16.965C87.713,247.49,68.422,229.5,45,229.5c-24.813,0-45,20.187-45,45    c0,19.555,12.541,36.228,30,42.42V475.5h30V316.92c9.22-3.27,17.068-9.46,22.421-17.46    c56.933,13.415,115.247,20.137,173.583,20.137c58.317,0,116.654-6.713,173.581-20.127c5.353,7.995,13.198,14.181,22.415,17.45    V475.5h30V316.92c17.459-6.192,30-22.865,30-42.42C512,249.687,491.813,229.5,467,229.5z M45,289.5c-8.271,0-15-6.729-15-15    s6.729-15,15-15s15,6.729,15,15S53.271,289.5,45,289.5z M246,156.5h20v40c0,5.514-4.486,10-10,10c-5.514,0-10-4.486-10-10V156.5z     M209.38,288.108l46.62-46.62l46.609,46.609C271.57,290.082,240.418,290.093,209.38,288.108z M467,289.5c-8.271,0-15-6.729-15-15    s6.729-15,15-15s15,6.729,15,15S475.271,289.5,467,289.5z" data-original="#000000" class="active-path" data-old_color="#000000" fill="#D1313F"/>
	</g>
</g><g>
	<g>
		<path d="M256,36.5c-22.056,0-40,17.944-40,40c0,22.056,17.944,40,40,40c22.056,0,40-17.944,40-40    C296,54.444,278.056,36.5,256,36.5z M256,86.5c-5.514,0-10-4.486-10-10s4.486-10,10-10c5.514,0,10,4.486,10,10    S261.514,86.5,256,86.5z" data-original="#000000" class="active-path" data-old_color="#000000" fill="#D1313F"/>
	</g>
</g><g>
	<g>
		<rect x="307" y="53.5" width="169" height="30" data-original="#000000" class="active-path" data-old_color="#000000" fill="#D1313F"/>
	</g>
</g><g>
	<g>
		<rect x="36" y="53.5" width="169" height="30" data-original="#000000" class="active-path" data-old_color="#000000" fill="#D1313F"/>
	</g>
</g></g> </svg>
