<?xml version="1.0" encoding="utf-8"?>
<!-- Generator: Adobe Illustrator 21.0.0, SVG Export Plug-In . SVG Version: 6.00 Build 0)  -->
<svg version="1.1" id="Capa_1" xmlns="http://www.w3.org/2000/svg" xmlns:xlink="http://www.w3.org/1999/xlink" x="0px" y="0px"
	 viewBox="0 0 493.9 493.9" style="enable-background:new 0 0 493.9 493.9;" xml:space="preserve">
<style type="text/css">
	.st0{fill:#F44A29;}
</style>
<g id="XMLID_110_">
	<path id="XMLID_119_" class="st0" d="M82.2,188.8c21.7,4.1,42.5-10.2,46.6-31.8c4.1-21.7-10.2-42.5-31.8-46.6
		c-21.7-4.1-42.5,10.2-46.6,31.8C46.3,163.9,60.5,184.7,82.2,188.8z"/>
	<path id="XMLID_118_" class="st0" d="M479.1,346.3c-18.2-92.9-12.6-63.8-24.4-126.2c-3.3-17.3-19.9-28.7-37.3-25.5
		c-15,2.8-25.6,15.8-26,30.4l-24.4,24.7l-36.9-11.7c-1.7-0.5-3.5-0.6-5.2-0.6l4.3-9.3c0.5-1,0.5-2.1,0.1-3.1c-0.4-1-1.1-1.8-2.1-2.3
		l-23.9-10.9c-2-0.9-4.4,0-5.4,2l-10.9,23.9c-0.5,1-0.5,2.1-0.1,3.1c0.4,1,1.1,1.8,2.1,2.3l19.3,8.8c-1.2,8.2,3.3,16.3,11.5,18.9
		l47,14.9c1.7,0.5,3.5,0.8,5.2,0.8c4.5,0,9-1.8,12.2-5.1l0.8-0.8l-8,49.9l-25.7,13.6c-8.6,4.6-13.1,14.4-10.7,23.9
		c2.4,9.5,10.9,16.2,20.7,16.2h105.2c11.8,0,21.3-9.5,21.3-21.3C487.7,356,484.2,350.2,479.1,346.3z"/>
	<path id="XMLID_117_" class="st0" d="M405.6,188.8c21.6-4.1,35.9-24.9,31.8-46.6c-4.1-21.7-24.9-35.9-46.6-31.8
		c-21.7,4.1-35.9,24.9-31.8,46.6C363,178.6,383.9,192.9,405.6,188.8z"/>
	<path id="XMLID_116_" class="st0" d="M492.9,154.3c-1.1-1.2-2.9-1.5-4.3-0.8c-14.9,7-25.4-3.9-32.2-3.9c-7.9,0-14.3,6.4-14.3,14.3
		c0,7.9,6.4,14.4,14.3,14.4c20.9,0,32.1-10.5,37.1-19.6C494.2,157.2,494,155.5,492.9,154.3z"/>
	<path id="XMLID_115_" class="st0" d="M237.6,346.8h-26.3c-2.2,0-4,1.8-4,4v26.2c0,2.2,1.8,4,4,4h26.3c2.2,0,4-1.8,4-4v-26.2
		C241.7,348.6,239.8,346.8,237.6,346.8z"/>
	<path id="XMLID_114_" class="st0" d="M287,346.8h-26.3c-2.2,0-4,1.8-4,4v26.2c0,2.2,1.8,4,4,4H287c2.2,0,4-1.8,4-4v-26.2
		C291,348.6,289.2,346.8,287,346.8z"/>
	<path id="XMLID_113_" class="st0" d="M178.8,284.1c2,0.9,4.4,0,5.4-2l10.9-23.9c0.5-1,0.5-2.1,0.1-3.1c-0.4-1-1.1-1.8-2.1-2.3
		L169.2,242c-2-0.9-4.4,0-5.4,2l-6.6,14.3l-48.6-9.2L95,235.8l0.7-3.9c3.3-17.3-8.1-34-25.5-37.3c-17.3-3.2-34,8.1-37.3,25.5
		c-1.2,6.1-17.1,87.6-16.8,93.9c-0.7,8.4,5.9,21.9,18.5,27.7H21.3C9.5,341.7,0,351.2,0,362.9s9.5,21.3,21.3,21.3h105.2
		c9.8,0,18.3-6.7,20.7-16.2c2.3-9.5-2.1-19.4-10.7-23.9l-56.3-29.7l7.2-38.1l1.1,1.1c2.4,2.3,5.5,3.9,8.8,4.5
		c2.7,0.5,57.4,11,60.1,11c7.2,0,13.4-4.6,15.9-11.4L178.8,284.1z"/>
	<path id="XMLID_112_" class="st0" d="M245.5,315.8h-67.4c-2.2,0-4,1.8-4,4.1v12.5c0,2.2,1.8,4,4,4h67.4c2.2,0,4-1.8,4-4v-12.5
		C249.5,317.7,247.7,315.8,245.5,315.8z"/>
	<path id="XMLID_111_" class="st0" d="M283.6,305.3c0.5,0,1-0.3,1.1-0.8c0.1-0.5,0-1-0.4-1.3l-32.4-23c-1.4-1-3.3-1-4.7,0l-32.4,23
		c-0.4,0.3-0.6,0.8-0.5,1.3c0.2,0.5,0.6,0.8,1.1,0.8H283.6z"/>
</g>
</svg>
