<?xml version="1.0" standalone="no"?><!-- Generator: Gravit.io --><svg xmlns="http://www.w3.org/2000/svg" xmlns:xlink="http://www.w3.org/1999/xlink" style="isolation:isolate" viewBox="0 0 200 200" width="200" height="200"><defs><clipPath id="_clipPath_hkbcC6tJdUXOTnZi98ZQiCTzCOmMMPzS"><rect width="200" height="200"/></clipPath></defs><g clip-path="url(#_clipPath_hkbcC6tJdUXOTnZi98ZQiCTzCOmMMPzS)"><rect width="200" height="200" style="fill:rgb(34,162,85)"/><g><g><g><path d=" M 113.5 83.5 C 112.12 83.5 111 84.62 111 86 C 111 87.38 112.12 88.5 113.5 88.5 C 114.88 88.5 116 87.38 116 86 C 116 84.62 114.88 83.5 113.5 83.5 Z " fill="rgb(255,255,255)" vector-effect="non-scaling-stroke" stroke-width="1" stroke="rgb(255,255,255)" stroke-linejoin="miter" stroke-linecap="butt" stroke-miterlimit="4"/></g></g><g><g><path d=" M 161.07 146.93 L 127.7 113.56 C 133.137 105.371 136 95.889 136 86 C 136 58.43 113.57 36 86 36 C 58.43 36 36 58.43 36 86 C 36 113.57 58.43 136 86 136 C 95.889 136 105.372 133.136 113.56 127.701 L 122.784 136.924 C 122.785 136.926 122.786 136.927 122.788 136.928 L 146.93 161.07 C 148.819 162.96 151.33 164 154 164 C 156.67 164 159.181 162.96 161.07 161.071 C 162.959 159.183 164 156.672 164 154 C 164 151.328 162.959 148.817 161.07 146.93 Z  M 112.384 122.432 C 112.384 122.432 112.384 122.432 112.384 122.432 C 104.667 128.037 95.544 131 86 131 C 61.187 131 41 110.813 41 86 C 41 61.187 61.187 41 86 41 C 110.813 41 131 61.187 131 86 C 131 95.544 128.037 104.667 122.432 112.384 C 119.628 116.247 116.247 119.628 112.384 122.432 Z  M 117.629 124.698 C 120.217 122.582 122.582 120.216 124.698 117.629 L 131.791 124.722 C 129.634 127.268 127.268 129.634 124.722 131.791 L 117.629 124.698 Z  M 157.535 157.535 C 156.59 158.48 155.335 159 154 159 C 152.666 159 151.41 158.48 150.465 157.535 L 128.267 135.336 C 130.798 133.163 133.163 130.798 135.336 128.267 L 157.535 150.466 C 158.48 151.41 159 152.665 159 154 C 159 155.336 158.48 156.59 157.535 157.535 Z " fill="rgb(255,255,255)" vector-effect="non-scaling-stroke" stroke-width="1" stroke="rgb(255,255,255)" stroke-linejoin="miter" stroke-linecap="butt" stroke-miterlimit="4"/></g></g><g><g><path d=" M 86 46 C 63.944 46 46 63.944 46 86 C 46 108.056 63.944 126 86 126 C 108.056 126 126 108.056 126 86 C 126 63.944 108.056 46 86 46 Z  M 86 121 C 66.701 121 51 105.299 51 86 C 51 66.701 66.701 51 86 51 C 105.299 51 121 66.701 121 86 C 121 105.299 105.299 121 86 121 Z " fill="rgb(255,255,255)" vector-effect="non-scaling-stroke" stroke-width="1" stroke="rgb(255,255,255)" stroke-linejoin="miter" stroke-linecap="butt" stroke-miterlimit="4"/></g></g><g><g><path d=" M 114.016 75.268 C 111.864 69.665 108.115 64.875 103.176 61.415 C 98.12 57.873 92.18 56 86 56 C 84.62 56 83.5 57.12 83.5 58.5 C 83.5 59.881 84.62 61 86 61 C 96.275 61 105.658 67.455 109.349 77.062 C 109.731 78.056 110.678 78.666 111.683 78.666 C 111.981 78.666 112.285 78.612 112.579 78.499 C 113.868 78.004 114.512 76.557 114.016 75.268 Z " fill="rgb(255,255,255)" vector-effect="non-scaling-stroke" stroke-width="1" stroke="rgb(255,255,255)" stroke-linejoin="miter" stroke-linecap="butt" stroke-miterlimit="4"/></g></g></g></g></svg>