<?xml version="1.0"?>
<svg xmlns="http://www.w3.org/2000/svg" height="512px" viewBox="-7 0 490 490.23303" width="512px"><g><path d="m472.171875 295.199219c-8.921875-15.199219-28.398437-20.417969-43.722656-11.710938l-68.277344 39.390625c-1.484375-3.535156-3.621094-6.757812-6.304687-9.496094-5.980469-6.023437-14.125-9.402343-22.617188-9.382812h-120c-1.359375 0-2.699219.347656-3.886719 1.007812l-52.914062 29.441407-8.917969-24.496094c-1.503906-4.15625-6.09375-6.308594-10.25-4.800781l-75.199219 27.359375c-1.996093.722656-3.625 2.210937-4.527343 4.132812-.898438 1.925781-.996094 4.128907-.273438 6.125l2.738281 7.511719-52.625 19.199219c-4.15625 1.503906-6.304687 6.09375-4.800781 10.246093l38.34375 105.226563c.722656 1.996094 2.210938 3.625 4.132812 4.527344 1.925782.898437 4.128907.996093 6.125.273437l52.632813-19.160156 2.734375 7.519531c1.503906 4.15625 6.09375 6.304688 10.25 4.796875l75.199219-27.359375c4.15625-1.503906 6.304687-6.089843 4.800781-10.246093l-1.960938-5.304688h90.398438c1.40625 0 2.785156-.371094 4-1.070312l173.199219-100c9.957031-5.671876 16.074219-16.273438 16-27.730469-.007813-5.613281-1.484375-11.128907-4.277344-16zm-420.921875 176.800781-32.800781-90.246094 45.105469-16.425781 32.839843 90.214844zm65.601562-6.847656-43.769531-120.351563 60.136719-21.898437 43.777344 120.296875zm335.597657-140.082032-171.34375 98.929688h-94.078125l-27.046875-74.320312 53.34375-29.679688h117.925781c4.242188-.007812 8.308594 1.679688 11.296875 4.6875 1.734375 1.730469 3.027344 3.851562 3.777344 6.183594.644531 1.632812.957031 3.375.925781 5.128906 0 8.835938-7.164062 16-16 16h-88v16h88c16.15625-.050781 29.726562-12.15625 31.617188-28.199219l73.550781-42.449219c4.949219-2.855468 11.046875-2.859374 15.996093 0 4.949219 2.855469 8 8.132813 8.003907 13.847657.046875 5.722656-3 11.027343-7.96875 13.871093zm0 0" data-original="#000000" class="active-path" data-old_color="##2BA94" fill="#2BA94B"/><path d="m171.25 144c.027344 14.917969 10.359375 27.835938 24.90625 31.144531 1.996094 8.773438 7.621094 16.292969 15.480469 20.679688 1.996093 16.785156 16.734375 29.101562 33.609375 28.085937 16.875-1.011718 30.03125-15.007812 30.003906-31.910156v-104c.035156-16.28125-12.179688-29.988281-28.359375-31.816406s-31.148437 8.800781-34.75 24.679687c-16.414063 3.164063-27.285156 18.871094-24.464844 35.34375-10.105469 5.605469-16.386719 16.238281-16.425781 27.792969zm22.546875-12.800781c5.996094 8.035156 15.425781 12.78125 25.453125 12.800781v-16c-8.835938 0-16-7.164062-16-16s7.164062-16 16-16 16 7.164062 16 16h16c-.058594-13.992188-9.21875-26.3125-22.597656-30.398438 3.074218-6.863281 10.515625-10.660156 17.875-9.117187 7.359375 1.539063 12.65625 7.996094 12.722656 15.515625v104c.003906 7.242188-4.859375 13.582031-11.855469 15.457031-6.996093 1.875-14.378906-1.183593-18-7.453125-3.621093-6.273437-2.578125-14.195312 2.542969-19.316406l-11.308594-11.3125c-2.410156 2.464844-4.402344 5.300781-5.898437 8.402344-4.859375-6.023438-4.601563-14.6875.609375-20.410156l-11.855469-10.734376c-3.085937 3.457032-5.371094 7.554688-6.6875 12-5.226563-2.28125-8.828125-7.183593-9.449219-12.847656-.621094-5.664062 1.839844-11.230468 6.449219-14.585937zm0 0" data-original="#000000" class="active-path" data-old_color="##2BA94" fill="#2BA94B"/><path d="m291.25 192c-.023438 16.902344 13.132812 30.898438 30.003906 31.910156 16.875 1.015625 31.613282-11.300781 33.613282-28.085937 7.859374-4.386719 13.484374-11.902344 15.480468-20.679688 12.910156-2.882812 22.695313-13.445312 24.582032-26.542969 1.882812-13.09375-4.527344-25.988281-16.101563-32.394531 2.816406-16.472656-8.054687-32.179687-24.464844-35.34375-3.601562-15.878906-18.570312-26.507812-34.75-24.679687-16.179687 1.828125-28.394531 15.535156-28.363281 31.816406zm16-104c.070312-7.519531 5.363281-13.976562 12.726562-15.515625 7.359376-1.542969 14.796876 2.253906 17.875 9.117187-13.378906 4.085938-22.542968 16.40625-22.601562 30.398438h16c0-8.835938 7.164062-16 16-16s16 7.164062 16 16-7.164062 16-16 16v16c10.027344-.019531 19.460938-4.761719 25.457031-12.800781 4.605469 3.355469 7.066407 8.921875 6.445313 14.585937-.617188 5.664063-4.222656 10.566406-9.445313 12.847656-1.320312-4.441406-3.597656-8.535156-6.671875-12l-11.878906 10.734376c5.21875 5.71875 5.480469 14.386718.613281 20.410156-1.496093-3.101563-3.488281-5.9375-5.894531-8.402344l-11.3125 11.3125c5.121094 5.121094 6.167969 13.042969 2.546875 19.316406-3.621094 6.269532-11.003906 9.328125-18 7.453125s-11.859375-8.214843-11.859375-15.457031zm0 0" data-original="#000000" class="active-path" data-old_color="##2BA94" fill="#2BA94B"/><path d="m275.25 0h16v16h-16zm0 0" data-original="#000000" class="active-path" data-old_color="##2BA94" fill="#2BA94B"/><path d="m204.324219 23.28125 13.855469-7.996094 8 13.855469-13.855469 8zm0 0" data-original="#000000" class="active-path" data-old_color="##2BA94" fill="#2BA94B"/><path d="m154.539062 78.929688 8.003907-13.855469 13.855469 8-8 13.855469zm0 0" data-original="#000000" class="active-path" data-old_color="##2BA94" fill="#2BA94B"/><path d="m139.25 136h16v16h-16zm0 0" data-original="#000000" class="active-path" data-old_color="##2BA94" fill="#2BA94B"/><path d="m154.546875 209.066406 13.859375-7.996094 7.996094 13.855469-13.855469 8zm0 0" data-original="#000000" class="active-path" data-old_color="##2BA94" fill="#2BA94B"/><path d="m204.320312 264.707031 7.996094-13.855469 13.859375 8-8 13.855469zm0 0" data-original="#000000" class="active-path" data-old_color="##2BA94" fill="#2BA94B"/><path d="m275.25 272h16v16h-16zm0 0" data-original="#000000" class="active-path" data-old_color="##2BA94" fill="#2BA94B"/><path d="m340.320312 258.847656 13.855469-8 8 13.859375-13.859375 7.996094zm0 0" data-original="#000000" class="active-path" data-old_color="##2BA94" fill="#2BA94B"/><path d="m390.097656 214.9375 8-13.855469 13.859375 7.996094-8 13.859375zm0 0" data-original="#000000" class="active-path" data-old_color="##2BA94" fill="#2BA94B"/><path d="m411.25 136h16v16h-16zm0 0" data-original="#000000" class="active-path" data-old_color="##2BA94" fill="#2BA94B"/><path d="m390.097656 73.070312 13.859375-8 7.996094 13.855469-13.855469 8zm0 0" data-original="#000000" class="active-path" data-old_color="##2BA94" fill="#2BA94B"/><path d="m340.320312 29.144531 8-13.855469 13.855469 7.996094-7.996093 13.859375zm0 0" data-original="#000000" class="active-path" data-old_color="##2BA94" fill="#2BA94B"/></g> </svg>
