<svg id="Capa_1" data-name="Capa 1" xmlns="http://www.w3.org/2000/svg" viewBox="0 0 480 480"><defs><style>.cls-1{fill:#39528b;}</style></defs><title>puzzle</title><path class="cls-1" d="M472,80H280a8,8,0,0,0-8,8v72a8,8,0,0,0,10.53,7.58l10.06-3.35a20.8,20.8,0,1,1,0,39.54l-10.06-3.35A8,8,0,0,0,272,208v64H208a8,8,0,0,0-7.58,10.53l3.35,10.06a20.8,20.8,0,1,1-39.54,0l3.35-10.06A8,8,0,0,0,160,272H88a8,8,0,0,0-8,8V472a8,8,0,0,0,8,8H472a8,8,0,0,0,8-8V88A8,8,0,0,0,472,80ZM272.41,397.48A8,8,0,0,0,272,400v64H96V288h52.9a36.8,36.8,0,1,0,70.19,0H272v64a8,8,0,0,0,10.53,7.58l10.06-3.35a20.8,20.8,0,1,1,0,39.54l-10.06-3.35A8,8,0,0,0,272.41,397.48ZM464,464H288V411.1a36.8,36.8,0,1,0,0-70.19V288h64a8,8,0,0,0,7.58-10.53l-3.35-10.06a20.8,20.8,0,1,1,39.54,0l-3.35,10.06A8,8,0,0,0,400,288h64V464Zm0-192H411.1a36.8,36.8,0,1,0-70.19,0H288V219.1a36.87,36.87,0,1,0,0-70.19V96H464Z"/><path class="cls-1" d="M230.14,68.9a36.8,36.8,0,0,0-22.14,0V8a8,8,0,0,0-8-8H8A8,8,0,0,0,0,8V200a8,8,0,0,0,8,8H68.9a36.8,36.8,0,1,0,70.19,0H200a8,8,0,0,0,8-8V139.1A36.8,36.8,0,0,0,230.14,68.9Zm-4.61,54.86a20.8,20.8,0,0,1-12.94,0l-10.06-3.35A8,8,0,0,0,192,128v64H128a8,8,0,0,0-7.58,10.53l3.35,10.06a20.8,20.8,0,1,1-39.54,0l3.35-10.06A8,8,0,0,0,80,192H16V16H192V80a8,8,0,0,0,10.53,7.58l10.06-3.35a20.8,20.8,0,0,1,12.94,39.54Z"/></svg>