<?xml version="1.0" encoding="utf-8"?>
<!-- Generator: Adobe Illustrator 21.0.0, SVG Export Plug-In . SVG Version: 6.00 Build 0)  -->
<svg version="1.1" id="Capa_1" xmlns="http://www.w3.org/2000/svg" xmlns:xlink="http://www.w3.org/1999/xlink" x="0px" y="0px"
	 viewBox="0 0 480 480" style="enable-background:new 0 0 480 480;" xml:space="preserve">
<style type="text/css">
	.st0{fill:#E1C302;}
</style>
<g>
	<g>
		<path class="st0" d="M466.6,464L318.2,282.9c-1.5-1.8-3.8-2.9-6.2-2.9h-1.5l-4.8-22.3c5.1,0.7,10.1,1.2,15.1,1.2
			c15,0,29.6-4,43.7-17.6c4.9-4.7,9.6-11.2,14.6-18.2c7.6-10.6,16.3-22.7,24.5-25.5c0,0,0,0,0,0c4.2-1.4,6.4-6,5-10.2
			c-1.4-4.2-6-6.4-10.2-5c0,0,0,0,0,0c-10.8,3.7-22.7-2.8-29.5-9.4c-7.6-7.3-12.9-16.8-18.6-26.8l-3.2-5.6
			c-4.7-8.1-10.2-16.8-17.5-24C343.2,106.4,352,90.3,352,72V8c0-4.4-3.6-8-8-8h-32c-4.4,0-8,3.6-8,8v64c0,4.4-3.6,8-8,8h-20.3
			c7.6-8.5,12.3-19.7,12.3-32c0-26.5-21.5-48-48-48s-48,21.5-48,48c0,12.3,4.7,23.5,12.3,32H184c-4.4,0-8-3.6-8-8V8c0-4.4-3.6-8-8-8
			h-32c-4.4,0-8,3.6-8,8v64c0,30.9,25.1,56,56,56h8v47.2L169.5,280H168c-2.4,0-4.7,1.1-6.2,2.9L13.4,464H0v16h17.1h445.7H480v-16
			H466.6z M333.2,148.6l3.1,5.4c6,10.6,12.1,21.6,21.4,30.5c5.4,5.2,12.7,10.1,20.9,12.8c-4.4,5-8.5,10.7-12.5,16.4
			c-4.5,6.3-8.8,12.2-12.7,16c-14.3,13.8-28.9,14.9-51.3,11.2L288,175.2V128h8c6.6,0,12.8-1.2,18.7-3.3
			C322.3,130.9,328.1,139.8,333.2,148.6z M240,16c17.6,0,32,14.4,32,32s-14.4,32-32,32s-32-14.4-32-32S222.4,16,240,16z
			 M207.8,177.7c0.1-0.6,0.2-1.1,0.2-1.7v-56c0-4.4-3.6-8-8-8h-16c-22.1,0-40-17.9-40-40V16h16v56c0,13.2,10.8,24,24,24h112
			c13.2,0,24-10.8,24-24V16h16v56c0,22.1-17.9,40-40,40h-16c-4.4,0-8,3.6-8,8v56c0,0.6,0.1,1.1,0.2,1.7L294.1,280h-23.9l-22.5-89.9
			c-0.9-3.6-4.1-6.1-7.8-6.1s-6.9,2.5-7.8,6.1L209.8,280h-23.9L207.8,177.7z M253.8,280h-27.5l13.8-55L253.8,280z M171.8,296h4.2h40
			h48h40h4.2l39.9,48.6L320,372.7l-34.3-34.3c-3.1-3.1-8.2-3.1-11.3,0L240,372.7l-34.3-34.3c-3.1-3.1-8.2-3.1-11.3,0L160,372.7
			l-28.1-28.1L171.8,296z M34,464l87.7-107l32.6,32.6c3.1,3.1,8.2,3.1,11.3,0l34.3-34.3l34.3,34.3c3.1,3.1,8.2,3.1,11.3,0l34.3-34.3
			l34.3,34.3c1.6,1.6,3.6,2.3,5.7,2.3s4.1-0.8,5.7-2.3l32.6-32.6L446,464H34z"/>
	</g>
</g>
<g>
	<g>
		<rect x="232" y="432" class="st0" width="16" height="16"/>
	</g>
</g>
<g>
	<g>
		<rect x="264" y="432" class="st0" width="16" height="16"/>
	</g>
</g>
<g>
	<g>
		<rect x="200" y="432" class="st0" width="16" height="16"/>
	</g>
</g>
<g>
	<g>
		<path class="st0" d="M104,48C81.9,48,64,30.1,64,8c0-4.4-3.6-8-8-8s-8,3.6-8,8c0,22.1-17.9,40-40,40c-4.4,0-8,3.6-8,8s3.6,8,8,8
			c22.1,0,40,17.9,40,40c0,4.4,3.6,8,8,8s8-3.6,8-8c0-22.1,17.9-40,40-40c4.4,0,8-3.6,8-8S108.4,48,104,48z M56,75.2
			C51.3,67.3,44.7,60.7,36.8,56c7.8-4.7,14.4-11.3,19.2-19.2c4.7,7.8,11.3,14.4,19.2,19.2C67.3,60.7,60.7,67.3,56,75.2z"/>
	</g>
</g>
<g>
	<g>
		<path class="st0" d="M472,288c-22.1,0-40-17.9-40-40c0-4.4-3.6-8-8-8s-8,3.6-8,8c0,22.1-17.9,40-40,40c-4.4,0-8,3.6-8,8s3.6,8,8,8
			c22.1,0,40,17.9,40,40c0,4.4,3.6,8,8,8s8-3.6,8-8c0-22.1,17.9-40,40-40c4.4,0,8-3.6,8-8S476.4,288,472,288z M424,315.2
			c-4.7-7.8-11.3-14.5-19.2-19.2c7.8-4.7,14.4-11.3,19.2-19.2c4.7,7.8,11.3,14.5,19.2,19.2C435.3,300.7,428.7,307.3,424,315.2z"/>
	</g>
</g>
<g>
	<g>
		<path class="st0" d="M96,192c-16,0-31.2,6.9-41.8,18.7c-4.6-1.8-9.4-2.7-14.2-2.7c-22.1,0-40,17.9-40,40c0,3.1,0.5,6.4,1.4,10
			c0.9,3.5,4.1,6,7.7,6h134.1c3.9,0,7.2-2.8,7.9-6.7c0.6-3.3,0.8-6.4,0.8-9.3C152,217.1,126.9,192,96,192z M16,248
			c0-13.2,10.8-24,24-24c4.3,0,8.5,1.2,12.4,3.6c3.6,2.2,8.3,1.2,10.7-2.3C70.6,214.5,82.9,208,96,208c22.1,0,40,17.9,40,40H16z"/>
	</g>
</g>
</svg>
