<svg id="Capa_1" data-name="Capa 1" xmlns="http://www.w3.org/2000/svg" viewBox="0 0 480 480"><defs><style>.cls-1{fill:#e1c302;}</style></defs><title>success</title><path class="cls-1" d="M466.64,464,318.18,282.93A8,8,0,0,0,312,280h-1.53l-4.78-22.33a111.13,111.13,0,0,0,15.1,1.17c15,0,29.62-4,43.67-17.59,4.92-4.74,9.6-11.25,14.56-18.15,7.64-10.62,16.3-22.66,24.47-25.46l0,0a8,8,0,1,0-5.15-15.14h0c-10.8,3.7-22.67-2.78-29.54-9.42-7.57-7.3-12.9-16.79-18.55-26.83l-3.16-5.57c-4.66-8.11-10.25-16.78-17.47-24A55.86,55.86,0,0,0,352,72V8a8,8,0,0,0-8-8H312a8,8,0,0,0-8,8V72a8,8,0,0,1-8,8H275.68a48,48,0,1,0-71.36,0H184a8,8,0,0,1-8-8V8a8,8,0,0,0-8-8H136a8,8,0,0,0-8,8V72a56.07,56.07,0,0,0,56,56h8v47.16L169.53,280H168a8,8,0,0,0-6.18,2.93L13.36,464H0v16H480V464ZM333.22,148.65l3.09,5.45c6,10.6,12.13,21.56,21.38,30.5a56.16,56.16,0,0,0,20.87,12.81c-4.38,5-8.49,10.74-12.53,16.36-4.53,6.3-8.8,12.24-12.67,16-14.28,13.76-28.9,14.87-51.26,11.17L288,175.16V128h8a55.63,55.63,0,0,0,18.71-3.28C322.32,130.91,328.1,139.76,333.22,148.65ZM240,16a32,32,0,1,1-32,32A32,32,0,0,1,240,16ZM207.82,177.68A7.94,7.94,0,0,0,208,176V120a8,8,0,0,0-8-8H184a40,40,0,0,1-40-40V16h16V72a24,24,0,0,0,24,24H296a24,24,0,0,0,24-24V16h16V72a40,40,0,0,1-40,40H280a8,8,0,0,0-8,8v56a7.94,7.94,0,0,0,.18,1.68L294.1,280H270.25l-22.49-89.94a8,8,0,0,0-15.52,0L209.75,280H185.9ZM253.75,280h-27.5L240,225Zm-82,16H308.22l39.86,48.62L320,372.69l-34.34-34.34a8,8,0,0,0-11.31,0L240,372.69l-34.34-34.34a8,8,0,0,0-11.31,0L160,372.69l-28.07-28.07ZM34,464l87.69-107,32.61,32.61a8,8,0,0,0,11.31,0L200,355.31l34.34,34.34a8,8,0,0,0,11.31,0L280,355.31l34.34,34.34a8,8,0,0,0,11.31,0L358.26,357,446,464Z"/><rect class="cls-1" x="232" y="432" width="16" height="16"/><rect class="cls-1" x="264" y="432" width="16" height="16"/><rect class="cls-1" x="200" y="432" width="16" height="16"/><path class="cls-1" d="M104,48A40,40,0,0,1,64,8,8,8,0,0,0,48,8,40,40,0,0,1,8,48,8,8,0,0,0,8,64a40,40,0,0,1,40,40,8,8,0,0,0,16,0,40,40,0,0,1,40-40,8,8,0,0,0,0-16ZM56,75.18A56.53,56.53,0,0,0,36.82,56,56.53,56.53,0,0,0,56,36.82,56.53,56.53,0,0,0,75.18,56,56.53,56.53,0,0,0,56,75.18Z"/><path class="cls-1" d="M472,288a40,40,0,0,1-40-40,8,8,0,0,0-16,0,40,40,0,0,1-40,40,8,8,0,0,0,0,16,40,40,0,0,1,40,40,8,8,0,0,0,16,0,40,40,0,0,1,40-40,8,8,0,0,0,0-16Zm-48,27.18A56.46,56.46,0,0,0,404.82,296,56.46,56.46,0,0,0,424,276.82,56.46,56.46,0,0,0,443.18,296,56.53,56.53,0,0,0,424,315.18Z"/><path class="cls-1" d="M96,192a56,56,0,0,0-41.75,18.71A39.25,39.25,0,0,0,40,208,40,40,0,0,0,0,248a39.53,39.53,0,0,0,1.39,10,8,8,0,0,0,7.74,6H143.28a8,8,0,0,0,7.89-6.68A55.72,55.72,0,0,0,96,192ZM16,248a24,24,0,0,1,24-24,23.64,23.64,0,0,1,12.38,3.56,8,8,0,0,0,10.73-2.28A40,40,0,0,1,136,248Z"/></svg>